<svg width="200" height="48" viewBox="0 0 200 48" fill="none" xmlns="http://www.w3.org/2000/svg">
  <!-- Logo Icon Frame -->
  <rect x="2" y="2" width="44" height="44" rx="6" stroke="#0B7A9F" stroke-width="2.5" fill="none"/>
  
  <!-- Pixels/Squares at top -->
  <rect x="17" y="10" width="5" height="5" fill="#0B7A9F"/>
  <rect x="24" y="10" width="5" height="5" fill="#0B7A9F"/>
  
  <rect x="13" y="16" width="5" height="5" fill="#0B7A9F"/>
  <rect x="20" y="16" width="5" height="5" fill="#0B7A9F"/>
  <rect x="27" y="16" width="5" height="5" fill="#0B7A9F"/>
  <rect x="34" y="16" width="5" height="5" fill="#0B7A9F"/>
  
  <rect x="13" y="22" width="5" height="5" fill="#0B7A9F"/>
  <rect x="20" y="22" width="5" height="5" fill="#0B7A9F"/>
  <rect x="27" y="22" width="5" height="5" fill="#0B7A9F"/>
  <rect x="34" y="22" width="5" height="5" fill="#0B7A9F"/>
  
  <rect x="20" y="28" width="5" height="5" fill="#0B7A9F"/>
  <rect x="27" y="28" width="5" height="5" fill="#0B7A9F"/>
  
  <!-- Stem -->
  <rect x="22" y="28" width="5" height="8" fill="#0B7A9F"/>
  
  <!-- Leaves -->
  <ellipse cx="15" cy="35" rx="7" ry="4" fill="#0B7A9F"/>
  <ellipse cx="35" cy="35" rx="7" ry="4" fill="#0B7A9F"/>
  
  <!-- Text: vestme.ai -->
  <text x="58" y="35" font-family="Arial, sans-serif" font-size="24" font-weight="600" fill="#2D1B4E">vestme.ai</text>
</svg>

