<svg width="32" height="32" viewBox="0 0 32 32" fill="none" xmlns="http://www.w3.org/2000/svg">
  <!-- Frame -->
  <path d="M8 2H4C2.89543 2 2 2.89543 2 4V8" stroke="#0B7A9F" stroke-width="2" stroke-linecap="round"/>
  <path d="M24 2H28C29.1046 2 30 2.89543 30 4V8" stroke="#0B7A9F" stroke-width="2" stroke-linecap="round"/>
  <path d="M24 30H28C29.1046 30 30 29.1046 30 28V24" stroke="#0B7A9F" stroke-width="2" stroke-linecap="round"/>
  <path d="M8 30H4C2.89543 30 2 29.1046 2 28V24" stroke="#0B7A9F" stroke-width="2" stroke-linecap="round"/>
  
  <!-- Top pixels -->
  <rect x="14" y="7" width="2" height="2" fill="#0B7A9F"/>
  <rect x="17" y="7" width="2" height="2" fill="#0B7A9F"/>
  
  <!-- Second row -->
  <rect x="11" y="10" width="2" height="2" fill="#0B7A9F"/>
  <rect x="14" y="10" width="2" height="2" fill="#0B7A9F"/>
  <rect x="17" y="10" width="2" height="2" fill="#0B7A9F"/>
  <rect x="20" y="10" width="2" height="2" fill="#0B7A9F"/>
  
  <!-- Third row -->
  <rect x="11" y="13" width="2" height="2" fill="#0B7A9F"/>
  <rect x="14" y="13" width="2" height="2" fill="#0B7A9F"/>
  <rect x="17" y="13" width="2" height="2" fill="#0B7A9F"/>
  <rect x="20" y="13" width="2" height="2" fill="#0B7A9F"/>
  
  <!-- Bottom pixels -->
  <rect x="14" y="16" width="2" height="2" fill="#0B7A9F"/>
  <rect x="17" y="16" width="2" height="2" fill="#0B7A9F"/>
  
  <!-- Stem -->
  <rect x="15" y="16" width="3" height="7" fill="#0B7A9F"/>
  
  <!-- Left leaf -->
  <path d="M15 21C15 21 10 20 9 23C8 26 11 25 15 24" fill="#0B7A9F"/>
  <path d="M15 21C15 21 12 21 11 22.5C10 24 11.5 24 15 23" fill="white"/>
  
  <!-- Right leaf -->
  <path d="M18 21C18 21 23 20 24 23C25 26 22 25 18 24" fill="#0B7A9F"/>
  <path d="M18 21C18 21 21 21 22 22.5C23 24 21.5 24 18 23" fill="white"/>
</svg>
